<svg width="168" height="169" viewBox="0 0 168 169" fill="none" xmlns="http://www.w3.org/2000/svg">
<g id="Button">
<circle id="Background" cx="82.8781" cy="84.968" r="62.8781" fill="#2B4248"/>
<path id="Pattern" fill-rule="evenodd" clip-rule="evenodd" d="M89.4677 80.0896L98.3144 89.8753H67V86.9406H91.6953L85.4242 80.0896H89.4677Z" fill="white"/>
<g id="Button_2">
<path id="Pattern_2" d="M115.818 159.1C116.054 159.642 115.806 160.274 115.26 160.502C105.195 164.718 94.3835 166.873 83.4644 166.836C72.1882 166.798 61.0422 164.424 50.7299 159.862C40.4176 155.3 31.1628 148.65 23.5495 140.332C15.9363 132.013 10.13 122.207 6.49692 111.532C2.86385 100.857 1.48294 89.5449 2.44133 78.3094C3.39972 67.0739 6.67661 56.159 12.0652 46.2535C17.4538 36.3481 24.8371 27.6671 33.7492 20.7584C42.379 14.0685 52.2608 9.18109 62.8076 6.38183C63.3793 6.23009 63.9615 6.57893 64.1058 7.15262C64.25 7.7263 63.9016 8.30757 63.3299 8.45952C53.0703 11.1865 43.4574 15.9429 35.0616 22.4514C26.3835 29.1787 19.194 37.6318 13.9469 47.2772C8.69982 56.9226 5.50896 67.5509 4.57573 78.4915C3.6425 89.432 4.98715 100.447 8.52484 110.842C12.0625 121.237 17.7164 130.785 25.1298 138.885C32.5431 146.985 41.5549 153.46 51.5965 157.903C61.6381 162.345 72.4914 164.657 83.4716 164.694C94.0947 164.73 104.613 162.635 114.406 158.537C114.952 158.309 115.583 158.557 115.818 159.1Z" fill="#2B4248"/>
<g id="Text">
<path id="Vector" d="M72.253 12.3972L72.0525 0.303881L72.0792 0.303909L78.4918 9.11293L77.6925 8.95156L83.7773 0.102173L83.804 0.102201L84.0044 12.1955L82.1391 12.2203L82.0142 4.35431L82.1464 5.29086L78.0364 11.3598L78.0098 11.3598L73.6193 5.44242L73.9133 4.55983L74.0383 12.3723L72.253 12.3972Z" fill="#2B4248"/>
<path id="Vector_2" d="M93.5758 7.49725C93.7898 6.72159 94.1103 5.99955 94.5906 5.3847C95.0709 4.76985 95.6311 4.23535 96.2977 3.83473C96.9642 3.43411 97.684 3.16732 98.4569 3.03436C99.2298 2.9014 100.029 2.92899 100.802 3.14384C101.574 3.33194 102.293 3.6805 102.906 4.16273C103.518 4.64496 104.024 5.23409 104.423 5.90338C104.822 6.57267 105.087 7.29532 105.22 8.07134C105.352 8.84737 105.325 9.62322 105.111 10.4256C104.923 11.2281 104.576 11.9233 104.096 12.5649C103.616 13.1798 103.029 13.6875 102.362 14.0881C101.696 14.4888 100.976 14.7288 100.203 14.8618C99.4569 14.968 98.6842 14.9404 97.885 14.7255C97.0858 14.5107 96.3667 14.1888 95.7543 13.7066C95.142 13.2244 94.6362 12.6888 94.2372 12.0195C93.8382 11.3502 93.5725 10.6543 93.4667 9.8783C93.3343 9.10228 93.3618 8.29967 93.5758 7.49725ZM95.4406 7.95404C95.3068 8.51575 95.2529 9.07754 95.3323 9.61272C95.4117 10.1479 95.571 10.6564 95.8636 11.1115C96.1563 11.5667 96.4756 11.9683 96.9016 12.2898C97.3276 12.6113 97.807 12.8526 98.3665 12.987C98.8993 13.1213 99.4322 13.1486 99.9652 13.0689C100.498 12.9892 100.978 12.8025 101.405 12.5086C101.858 12.2415 102.231 11.8674 102.552 11.4396C102.872 11.0119 103.112 10.5038 103.246 9.94209C103.38 9.38039 103.434 8.8186 103.328 8.28339C103.248 7.74822 103.089 7.23971 102.823 6.7846C102.557 6.32949 102.238 5.92784 101.812 5.60633C101.386 5.28483 100.906 5.04353 100.347 4.90917C99.7874 4.77481 99.2545 4.74749 98.7481 4.82723C98.2151 4.90693 97.7353 5.09371 97.282 5.38753C96.8287 5.6546 96.4552 6.02877 96.135 6.45651C95.8148 6.911 95.5744 7.39234 95.4406 7.95404Z" fill="#2B4248"/>
<path id="Vector_3" d="M119.633 10.4935C120.192 10.7884 120.671 11.1367 121.071 11.5385C121.47 11.9402 121.763 12.3686 121.922 12.8236C122.108 13.2786 122.187 13.7603 122.134 14.2686C122.106 14.7769 121.946 15.2851 121.679 15.8199C121.465 16.221 121.198 16.5952 120.852 16.9427C120.505 17.2901 120.132 17.5305 119.678 17.7173C119.225 17.9042 118.719 17.9571 118.159 17.9298C117.6 17.9024 116.987 17.7145 116.321 17.3393L114.83 16.5618L112.934 20.1449L111.283 19.2603L116.703 8.91194L119.633 10.4935ZM117.149 15.7616C117.522 15.9493 117.842 16.0566 118.161 16.0837C118.481 16.0841 118.748 16.0576 118.961 15.9508C119.201 15.844 119.387 15.7104 119.548 15.5233C119.708 15.363 119.841 15.1758 119.948 14.9887C120.028 14.8282 120.108 14.6143 120.162 14.3735C120.215 14.1328 120.215 13.892 120.189 13.6244C120.136 13.3568 120.03 13.1159 119.87 12.875C119.684 12.634 119.444 12.4197 119.071 12.232L117.553 11.4278L115.684 14.9842L117.149 15.7616ZM118.426 17.6893L118.847 23.2814L116.929 22.2627L116.429 16.6705L118.426 17.6893Z" fill="#2B4248"/>
<path id="Vector_4" d="M132.921 18.9357L138.831 23.9183L137.658 25.3083L133.185 21.5312L131.184 23.9102L135.177 27.2855L134.03 28.6488L130.037 25.2735L128.009 27.7061L132.668 31.6439L131.521 33.0072L125.451 27.8639L132.921 18.9357Z" fill="#2B4248"/>
<path id="Vector_5" d="M155.596 45.3395C156.021 46.1158 156.26 46.8384 156.313 47.5341C156.366 48.2298 156.232 48.8718 155.911 49.4333C155.591 49.9948 155.084 50.4758 154.418 50.8765C154.018 51.0901 153.591 51.2769 153.111 51.3567C152.632 51.4632 152.179 51.4627 151.699 51.3819C151.22 51.3012 150.767 51.0866 150.314 50.7651C149.861 50.4436 149.462 49.9616 149.117 49.2924L148.292 47.82L144.773 49.8229L143.842 48.1899L153.973 42.4483L155.596 45.3395ZM150.663 48.4111C150.849 48.7591 151.089 49.0269 151.355 49.1877C151.621 49.3752 151.861 49.4558 152.127 49.5096C152.394 49.5366 152.634 49.5368 152.874 49.4568C153.113 49.4036 153.3 49.3235 153.46 49.2434C153.62 49.1633 153.78 49.0297 153.94 48.8426C154.1 48.6822 154.26 48.4684 154.367 48.2277C154.474 47.987 154.527 47.7195 154.501 47.4252C154.475 47.1309 154.369 46.8097 154.182 46.4349L153.331 44.9358L149.838 46.9119L150.663 48.4111Z" fill="#2B4248"/>
<path id="Vector_6" d="M162.8 61.9885C162.986 62.604 163.092 63.1927 163.092 63.7546C163.091 64.3164 162.984 64.8247 162.797 65.2793C162.61 65.7339 162.316 66.1349 161.943 66.4556C161.57 66.803 161.09 67.0433 160.503 67.23C160.077 67.3633 159.597 67.443 159.117 67.4425C158.638 67.442 158.185 67.3613 157.732 67.1468C157.279 66.959 156.88 66.6376 156.507 66.2358C156.135 65.8074 155.842 65.2452 155.63 64.5226L155.125 62.9168L151.26 64.1167L150.702 62.3236L161.818 58.8571L162.8 61.9885ZM156.88 66.2362L153.225 70.4864L152.588 68.4256L156.163 64.1219L156.88 66.2362ZM157.336 63.9626C157.469 64.364 157.628 64.6853 157.841 64.8995C158.054 65.1138 158.267 65.2745 158.507 65.3818C158.746 65.4623 158.986 65.5161 159.226 65.5163C159.466 65.5166 159.679 65.49 159.866 65.4367C160.052 65.3834 160.239 65.2766 160.426 65.143C160.612 65.0094 160.799 64.8491 160.959 64.6352C161.119 64.4214 161.226 64.1807 161.28 63.8597C161.333 63.5654 161.307 63.2176 161.174 62.8429L160.67 61.1836L156.831 62.3835L157.336 63.9626Z" fill="#2B4248"/>
<path id="Vector_7" d="M160.413 76.9158C161.212 76.8631 161.985 76.9709 162.731 77.2125C163.477 77.4808 164.116 77.8561 164.728 78.3651C165.314 78.874 165.793 79.4631 166.165 80.1591C166.538 80.8551 166.723 81.6045 166.802 82.434C166.855 83.2366 166.748 84.0124 166.48 84.7613C166.213 85.5101 165.813 86.1786 165.306 86.7666C164.799 87.3547 164.185 87.8356 163.492 88.2095C162.799 88.5833 162.053 88.7698 161.253 88.8492C160.427 88.9019 159.654 88.794 158.909 88.5257C158.163 88.2574 157.497 87.8821 156.938 87.3732C156.379 86.8643 155.9 86.2484 155.528 85.5524C155.182 84.8564 154.969 84.1071 154.917 83.2776C154.865 82.4482 154.945 81.6724 155.213 80.9235C155.453 80.1746 155.854 79.5329 156.334 78.9448C156.841 78.3568 157.428 77.9026 158.121 77.5287C158.841 77.1817 159.587 76.9684 160.413 76.9158ZM160.544 78.8422C159.958 78.8951 159.452 79.0284 158.945 79.2686C158.465 79.5089 158.038 79.8295 157.692 80.2305C157.345 80.6314 157.078 81.086 156.891 81.5941C156.704 82.1023 156.65 82.6373 156.676 83.2259C156.702 83.7878 156.861 84.2963 157.101 84.7782C157.34 85.26 157.659 85.6617 158.085 85.9832C158.511 86.3047 158.937 86.5727 159.47 86.7605C159.976 86.9216 160.536 87.0024 161.095 86.9495C161.682 86.8966 162.215 86.7634 162.695 86.5231C163.174 86.2828 163.601 85.9622 163.948 85.5612C164.295 85.1603 164.562 84.7325 164.749 84.2244C164.936 83.7162 164.99 83.1812 164.964 82.6193C164.938 82.0574 164.778 81.5222 164.539 81.0403C164.3 80.5585 163.954 80.1568 163.554 79.8086C163.155 79.4604 162.676 79.2191 162.169 79.0312C161.663 78.8702 161.131 78.7894 160.544 78.8422Z" fill="#2B4248"/>
<path id="Vector_8" d="M156.577 100.697C155.618 100.562 154.819 100.267 154.18 99.7847C153.541 99.3024 153.088 98.7133 152.822 98.0174C152.557 97.3215 152.451 96.5188 152.532 95.6895L154.317 95.9321C154.263 96.6812 154.422 97.2967 154.795 97.8322C155.167 98.3677 155.86 98.6895 156.845 98.8511L166.09 100.118L165.849 101.991L156.577 100.697Z" fill="#2B4248"/>
<path id="Vector_9" d="M163.492 113.037L161.033 120.392L159.328 119.828L161.199 114.265L158.269 113.272L156.612 118.247L154.907 117.683L156.564 112.736L153.554 111.716L151.603 117.493L149.898 116.929L152.438 109.36L163.492 113.037Z" fill="#2B4248"/>
<path id="Vector_10" d="M142.634 132.439C142.634 132.225 142.634 131.93 142.661 131.556C142.688 131.181 142.769 130.753 142.903 130.298C143.036 129.844 143.25 129.362 143.57 128.881C144.051 128.106 144.611 127.491 145.251 127.037C145.891 126.583 146.584 126.262 147.304 126.129C148.023 125.996 148.743 125.97 149.489 126.105C150.235 126.239 150.927 126.508 151.62 126.91C152.365 127.365 153.004 127.901 153.483 128.517C153.962 129.133 154.308 129.802 154.494 130.525C154.679 131.247 154.732 131.996 154.625 132.745C154.517 133.494 154.25 134.243 153.823 134.965C153.449 135.607 153.022 136.115 152.542 136.516C152.062 136.917 151.635 137.21 151.209 137.424L150.091 135.871C150.411 135.711 150.785 135.497 151.185 135.23C151.585 134.963 151.931 134.562 152.225 134.081C152.492 133.626 152.652 133.171 152.733 132.663C152.787 132.155 152.761 131.647 152.628 131.138C152.495 130.63 152.256 130.175 151.936 129.719C151.617 129.291 151.191 128.916 150.712 128.594C150.179 128.273 149.673 128.058 149.14 127.951C148.608 127.843 148.101 127.843 147.595 127.949C147.115 128.056 146.635 128.269 146.209 128.563C145.782 128.857 145.408 129.284 145.088 129.819C144.794 130.327 144.581 130.835 144.527 131.317C144.447 131.798 144.446 132.226 144.499 132.574L142.634 132.439Z" fill="#2B4248"/>
<path id="Vector_11" d="M145.738 145.926L140.403 151.619L139.098 150.387L141.179 148.196L133.992 141.419L135.272 140.056L142.46 146.833L144.461 144.694L145.738 145.926Z" fill="#2B4248"/>
<path id="Vector_12" d="M126.084 160.113C126.537 160.033 127.017 159.927 127.497 159.794C127.977 159.66 128.376 159.447 128.723 159.206C129.176 158.886 129.497 158.512 129.604 158.084C129.737 157.682 129.658 157.308 129.392 156.933C129.205 156.665 128.939 156.504 128.619 156.451C128.3 156.397 127.927 156.396 127.527 156.449C127.127 156.529 126.727 156.609 126.301 156.716C125.928 156.822 125.555 156.902 125.181 156.955C124.808 157.008 124.409 157.008 124.036 156.981C123.663 156.927 123.29 156.793 122.944 156.578C122.597 156.364 122.251 156.016 121.932 155.561C121.586 155.052 121.374 154.517 121.347 153.928C121.295 153.339 121.429 152.751 121.722 152.163C122.016 151.574 122.496 151.066 123.163 150.586C123.563 150.292 123.99 150.051 124.416 149.891C124.869 149.704 125.296 149.571 125.749 149.491C126.202 149.412 126.628 149.358 127.055 149.332L127.213 150.991C126.893 150.991 126.547 151.017 126.2 151.07C125.854 151.123 125.481 151.23 125.134 151.337C124.788 151.47 124.494 151.63 124.254 151.791C123.988 151.978 123.747 152.218 123.561 152.512C123.347 152.806 123.24 153.101 123.213 153.422C123.186 153.743 123.266 154.064 123.505 154.412C123.692 154.68 123.931 154.867 124.224 154.948C124.517 155.028 124.837 155.055 125.183 155.029C125.53 155.003 125.903 154.923 126.276 154.843C126.649 154.736 127.049 154.656 127.449 154.577C127.849 154.497 128.248 154.47 128.675 154.471C129.074 154.471 129.474 154.579 129.847 154.766C130.22 154.954 130.566 155.249 130.859 155.704C131.231 156.239 131.417 156.775 131.47 157.336C131.496 157.898 131.389 158.433 131.122 158.968C130.855 159.503 130.428 159.984 129.894 160.412C129.228 160.892 128.588 161.213 128.001 161.4C127.415 161.586 126.855 161.693 126.322 161.719L126.084 160.113Z" fill="#2B4248"/>
</g>
</g>
</g>
</svg>
